<svg xmlns="http://www.w3.org/2000/svg" viewBox="0 0 64 64">
  <title>Tribe Harbor Phone</title>
  <rect width="64" height="64" rx="15" fill="#0A7AFF"/>
  <path
    fill="#fff"
    d="M20.2 13.5c1.5-.9 3.4-.4 4.3 1.1l5.1 8.6c.8 1.4.5 3.2-.7 4.2l-3.5 2.9c-.7.6-.9 1.6-.4 2.4 1.8 3.2 4.5 5.9 7.7 7.7.8.5 1.8.3 2.4-.4l2.9-3.5c1.1-1.3 2.9-1.6 4.3-.7l8.6 5.1c1.5.9 2 2.8 1.1 4.3l-2.2 3.7c-1.5 2.6-4.5 3.9-7.4 3.2-7.2-1.8-14-5.6-19.5-11.1S13.6 28.7 11.8 21.5c-.7-2.9.6-5.9 3.2-7.4l5.2-.6Z"
  />
  <circle cx="48" cy="17" r="7" fill="#30D158"/>
  <path d="M45 17h6M48 14v6" stroke="#fff" stroke-width="2.4" stroke-linecap="round"/>
</svg>
